;TYPE=PLATED
;Layer: PTH_Through
;EasyEDA Pro v2.2.44.9, 2025-12-02 00:09:12
;Gerber Generator version 0.3
M48
METRIC,LZ,0000.00000
;Hole size 1 = 0.30480 METRIC
T01C0.30480
;Hole size 2 = 0.60000 METRIC
T02C0.60000
;Hole size 3 = 0.80000 METRIC
T03C0.80000
;Hole size 4 = 0.91999 METRIC
T04C0.91999
;Hole size 5 = 1.00000 METRIC
T05C1.00000
;Hole size 6 = 2.10002 METRIC
T06C2.10002
%
G05
G90
T01
X25.908Y22.479
X25.908Y23.86793
X20.32Y59.309
X17.272Y59.436
X20.37617Y74.72032
X17.272Y74.549
X26.797Y68.072
X26.67Y64.516
X27.305Y51.943
X26.035Y50.419
X27.72571Y43.56105
X40.386Y40.894
X24.765Y43.307
T02
X15.86404Y65.53893G85X14.96404Y65.53893
X15.86403Y56.88891G85X14.964Y56.88891
X11.51397Y65.53899G85X10.91397Y65.53899
X11.51397Y56.88902G85X10.91397Y56.88902
X15.86404Y80.65193G85X14.96404Y80.65193
X15.86403Y72.00191G85X14.964Y72.00191
X11.51397Y80.65199G85X10.91397Y80.65199
X11.51397Y72.00201G85X10.91397Y72.00201
T03
X23.15601Y8.232G85X23.15601Y6.532
X34.75599Y8.232G85X34.75599Y6.532
T04
X19.64296Y40.06113
X19.64296Y42.561
X19.64296Y44.561
X19.64296Y47.06112
X19.64296Y21.77313
X19.64296Y24.273
X19.64296Y26.273
X19.64296Y28.77312
T05
X32.45599Y9.382
X29.95613Y9.382
X27.95613Y9.382
X25.45601Y9.382
T06
X16.93304Y50.56099
X16.93304Y36.56101
X16.93304Y32.27299
X16.93304Y18.27301
M30