G04 Layer: TopLayer*
G04 EasyEDA Pro v2.2.44.9, 2025-12-02 00:09:12*
G04 Gerber Generator version 0.3*
G04 Scale: 100 percent, Rotated: No, Reflected: No*
G04 Dimensions in millimeters*
G04 Leading zeros omitted, absolute positions, 4 integers and 5 decimals*
G04 Generated by one-click*
%FSLAX45Y45*%
%MOMM*%
%ADD10C,0.254*%
%ADD11C,0.3*%
%ADD12R,0.8X0.9*%
%ADD13R,0.9X0.8*%
%ADD14R,1.0X0.75001*%
%ADD15R,0.5461X0.56566*%
%ADD16R,0.54X0.56566*%
%ADD17O,1.74501X0.55999*%
%ADD18C,2.59999*%
%ADD19C,1.524*%
%ADD20R,1.524X1.524*%
%ADD21R,1.1X0.55001*%
%ADD22R,1.1X0.3*%
%ADD23O,2.0X1.1*%
%ADD24O,1.8X1.2*%
%ADD25R,1.6X2.79999*%
%ADD26R,1.6X1.6*%
%ADD27C,1.6*%
%ADD28C,0.6096*%
G75*


G04 PolygonModel Start*
G54D10*
G01X1596403Y6146406D02*
G01X1523606Y6146406D01*
G01X1473200Y6096000D01*
G01X1473200Y6070600D01*
G01X1497394Y6046407D01*
G01X1596403Y6046407D01*
G01X1596403Y6196394D02*
G01X1664907Y6196394D01*
G01X1701800Y6159500D01*
G01X1701800Y6105821D01*
G01X1685735Y6096394D01*
G01X1596403Y6096394D01*
G01X1596403Y7557707D02*
G01X1522794Y7557707D01*
G01X1485900Y7594600D01*
G01X1485900Y7632700D01*
G01X1510906Y7657706D01*
G01X1596403Y7657706D01*
G01X1596404Y7707694D02*
G01X1690307Y7707694D01*
G01X1714500Y7683500D01*
G01X1714500Y7632700D01*
G01X1689494Y7607694D01*
G01X1596403Y7607694D01*
G54D11*
G01X3249600Y941400D02*
G01X3245599Y1492999D01*
G01X3441700Y1689100D01*
G01X3441700Y1813141D01*
G01X3444659Y1816100D01*
G01X3210141Y1816100D02*
G01X2851302Y1816100D01*
G54D10*
G01X2851302Y1816100D02*
G01X2851302Y2095500D01*
G01X2851302Y2095500D02*
G01X3860800Y3104998D01*
G01X3860800Y3251200D01*
G01X3937000Y3327400D01*
G01X4033749Y3327400D01*
G01X2851302Y2095500D02*
G01X2635402Y2311400D01*
G01X1841500Y2311400D01*
G01X1778000Y2374900D01*
G01X1778000Y2781300D01*
G01X1874012Y2877312D01*
G01X1964296Y2877312D01*
G01X1964296Y2877312D02*
G01X1964296Y3763404D01*
G01X1765300Y3962400D01*
G01X1765300Y4507116D01*
G01X1964296Y4706112D01*
G01X1964296Y4706112D02*
G01X2528214Y4706112D01*
G01X2603500Y4781398D01*
G01X1981200Y4724400D02*
G01X1981200Y5634349D01*
G01X1734166Y5881383D01*
G01X1596404Y5881383D01*
G01X1596404Y5881383D02*
G01X1511300Y5905500D01*
G01X1409700Y5994400D01*
G01X1409700Y6261100D01*
G01X1498600Y6337300D01*
G01X1596404Y6361392D01*
G01X1596403Y7757681D02*
G01X2436381Y7757681D01*
G01X2501900Y7823200D01*
G01X2705100Y7823200D01*
G01X2545601Y938200D02*
G01X2545601Y1650403D01*
G01X2711298Y1816100D01*
G01X2711298Y1816100D02*
G01X2711298Y2095500D01*
G01X2711298Y2095500D02*
G01X2046110Y2095500D01*
G01X1964296Y2177313D01*
G01X1541412Y7200202D02*
G01X1541412Y7257707D01*
G01X1596403Y7312698D01*
G01X1541412Y8065199D02*
G01X1541412Y8007694D01*
G01X1596404Y7952702D01*
G01X1541412Y6553899D02*
G01X1596403Y6498908D01*
G01X1596403Y6441402D01*
G01X1541412Y5688902D02*
G01X1541412Y5746407D01*
G01X1596403Y5801398D01*
G01X1596403Y7872692D02*
G01X1548092Y7872692D01*
G01X1371600Y7696200D01*
G01X1371600Y7454900D01*
G01X1384300Y7442200D01*
G01X1488836Y7442200D01*
G01X1563598Y7392683D01*
G01X1596403Y7392683D01*
G01X1596403Y7392683D02*
G01X1649717Y7392683D01*
G01X1752600Y7289800D01*
G01X1752600Y6413500D01*
G01X1701800Y6362700D01*
G01X1596404Y6362700D01*
G01X2711298Y2095500D02*
G01X2590800Y2215998D01*
G01X2590800Y2247900D01*
G01X2590800Y2386793D02*
G01X2697791Y2386793D01*
G01X2711298Y2400300D01*
G01X2851302Y2400300D02*
G01X3397402Y2946400D01*
G01X3568700Y2946400D01*
G01X3771900Y3149600D01*
G01X3771900Y3505200D01*
G01X3848100Y3581400D01*
G01X4033749Y3581400D01*
G01X4033749Y3454400D02*
G01X4140200Y3454400D01*
G01X4292600Y3606800D01*
G01X4292600Y3898900D01*
G01X4229100Y3962400D01*
G01X4033749Y3962400D01*
G01X4033749Y3708400D02*
G01X3797300Y3708400D01*
G01X3606800Y3517900D01*
G01X3289300Y3517900D01*
G01X2743200Y4064000D01*
G01X2743200Y4241800D01*
G01X2698902Y4286098D01*
G01X2603500Y4286098D01*
G01X2692400Y5849518D02*
G01X2113382Y5849518D01*
G01X2032000Y5930900D01*
G01X1727200Y5943600D02*
G01X1596404Y5943600D01*
G01X2730500Y7386218D02*
G01X2801518Y7386218D01*
G01X2921000Y7505700D01*
G01X2921000Y7670800D01*
G01X2849232Y7742568D01*
G01X2705100Y7742568D01*
G01X2730500Y7472032D02*
G01X2041983Y7472032D01*
G01X1727200Y7454900D02*
G01X1596404Y7454900D01*
G01X2730500Y7386218D02*
G01X2730500Y6858000D01*
G01X2679700Y6807200D01*
G01X2667000Y6451600D02*
G01X2667000Y6278982D01*
G01X2667000Y6193168D02*
G01X1990581Y6193168D01*
G01X1948049Y6235700D01*
G01X1739900Y6235700D01*
G01X1727200Y6248400D01*
G01X1596404Y6248400D01*
G01X2667000Y6278982D02*
G01X2778974Y6278982D01*
G01X2822256Y6235700D01*
G01X2822256Y5989606D01*
G01X2783972Y5951323D01*
G01X2707641Y5951323D01*
G01X2692400Y5936082D01*
G01X2692400Y5936082D02*
G01X2707641Y5936082D01*
G01X2864425Y5779298D01*
G01X2864425Y5328225D01*
G01X2730500Y5194300D01*
G01X2603500Y5041900D02*
G01X2603500Y4921402D01*
G01X2603500Y4921402D02*
G01X2673198Y4921402D01*
G01X2717800Y4876800D01*
G01X2717800Y4540402D01*
G01X2603500Y4426102D01*
G01X2603500Y4426102D02*
G01X2702573Y4426102D01*
G01X2772571Y4356105D01*
G01X4038600Y4089400D02*
G01X4038600Y3967251D01*
G01X4033749Y3962400D01*
G01X2603500Y4426102D02*
G01X2571902Y4426102D01*
G01X2476500Y4330700D01*

G04 Pad Start*
G54D12*
G01X2711298Y2095500D03*
G01X2851302Y2095500D03*
G01X2711298Y1816100D03*
G01X2851302Y1816100D03*
G54D13*
G01X2603500Y4921402D03*
G01X2603500Y4781398D03*
G01X2603500Y4426102D03*
G01X2603500Y4286098D03*
G54D12*
G01X2711298Y2400300D03*
G01X2851302Y2400300D03*
G54D14*
G01X3444659Y1816100D03*
G01X3210141Y1816100D03*
G54D16*
G01X2667000Y6278982D03*
G01X2667000Y6192418D03*
G01X2692400Y5936082D03*
G01X2692400Y5849518D03*
G54D17*
G01X3459251Y3962400D03*
G01X3459251Y3835400D03*
G01X3459251Y3708400D03*
G01X3459251Y3581400D03*
G01X3459251Y3454400D03*
G01X3459251Y3327400D03*
G01X3459251Y3200400D03*
G01X3459251Y3073400D03*
G01X4033749Y3962400D03*
G01X4033749Y3835400D03*
G01X4033749Y3708400D03*
G01X4033749Y3581400D03*
G01X4033749Y3454400D03*
G01X4033749Y3327400D03*
G01X4033749Y3200400D03*
G01X4033749Y3073400D03*
G54D18*
G01X1693304Y5056099D03*
G01X1693304Y3656101D03*
G54D19*
G01X1964296Y4006113D03*
G01X1964296Y4256100D03*
G01X1964296Y4456100D03*
G54D20*
G01X1964296Y4706112D03*
G54D18*
G01X1693304Y3227299D03*
G01X1693304Y1827301D03*
G54D19*
G01X1964296Y2177313D03*
G01X1964296Y2427300D03*
G01X1964296Y2627300D03*
G54D20*
G01X1964296Y2877312D03*
G54D16*
G01X2705100Y7828382D03*
G01X2705100Y7741818D03*
G01X2730500Y7472782D03*
G01X2730500Y7386218D03*
G54D21*
G01X1596403Y6441402D03*
G01X1596403Y6361392D03*
G54D22*
G01X1596403Y6296393D03*
G01X1596403Y6246381D03*
G01X1596403Y6196394D03*
G01X1596403Y6146406D03*
G01X1596403Y6096394D03*
G01X1596403Y6046407D03*
G01X1596403Y5996394D03*
G01X1596403Y5946381D03*
G54D21*
G01X1596403Y5881383D03*
G01X1596403Y5801398D03*
G54D23*
G01X1541412Y6553899D03*
G01X1541412Y5688902D03*
G54D24*
G01X1121397Y6553899D03*
G01X1121397Y5688902D03*
G54D21*
G01X1596403Y7952702D03*
G01X1596403Y7872692D03*
G54D22*
G01X1596403Y7807693D03*
G01X1596403Y7757681D03*
G01X1596403Y7707694D03*
G01X1596403Y7657706D03*
G01X1596403Y7607694D03*
G01X1596403Y7557707D03*
G01X1596403Y7507694D03*
G01X1596403Y7457681D03*
G54D21*
G01X1596403Y7392683D03*
G01X1596403Y7312698D03*
G54D23*
G01X1541412Y8065199D03*
G01X1541412Y7200202D03*
G54D24*
G01X1121397Y8065199D03*
G01X1121397Y7200202D03*
G54D25*
G01X2315604Y738200D03*
G01X3475596Y738200D03*
G54D26*
G01X3245599Y938200D03*
G54D27*
G01X2995613Y938200D03*
G01X2795613Y938200D03*
G01X2545601Y938200D03*
G04 Pad End*

G04 Via Start*
G54D28*
G01X2590800Y2247900D03*
G01X2590800Y2386793D03*
G01X2032000Y5930900D03*
G01X1727200Y5943600D03*
G01X2037617Y7472032D03*
G01X1727200Y7454900D03*
G01X2679700Y6807200D03*
G01X2667000Y6451600D03*
G01X2730500Y5194300D03*
G01X2603500Y5041900D03*
G01X2772571Y4356105D03*
G01X4038600Y4089400D03*
G01X2476500Y4330700D03*
G04 Via End*

G04 Track Start*
G54D10*
G01X1964296Y2627300D02*
G01X2065896Y2627300D01*
G01X2170976Y2547620D02*
G01X2780576Y3157220D01*
G01X1964296Y2427300D02*
G01X2065896Y2427300D01*
G01X2187810Y2506980D02*
G01X2797410Y3116580D01*
G01X3346601Y3200400D02*
G01X3459251Y3200400D01*
G01X3346601Y3073400D02*
G01X3459251Y3073400D01*
G01X2065896Y2627300D02*
G01X2145576Y2547620D01*
G01X2170976Y2547620D01*
G01X3303421Y3157220D02*
G01X3346601Y3200400D01*
G01X2065896Y2427300D02*
G01X2145576Y2506980D01*
G01X3303421Y3116580D02*
G01X3346601Y3073400D01*
G01X2780576Y3157220D02*
G01X3303421Y3157220D01*
G01X2145576Y2506980D02*
G01X2187810Y2506980D01*
G01X2797410Y3116580D02*
G01X3303421Y3116580D01*
G01X1964296Y4456100D02*
G01X2065896Y4456100D01*
G01X2312821Y4376420D02*
G01X3278021Y3411220D01*
G01X1964296Y4256100D02*
G01X2065896Y4256100D01*
G01X2295988Y4335780D02*
G01X3261188Y3370580D01*
G01X3346601Y3454400D02*
G01X3459251Y3454400D01*
G01X3346601Y3327400D02*
G01X3459251Y3327400D01*
G01X2065896Y4456100D02*
G01X2145576Y4376420D01*
G01X3278021Y3411220D02*
G01X3303421Y3411220D01*
G01X3346601Y3454400D01*
G01X2065896Y4256100D02*
G01X2145576Y4335780D01*
G01X3303421Y3370580D02*
G01X3346601Y3327400D01*
G01X2145576Y4376420D02*
G01X2312821Y4376420D01*
G01X2145576Y4335780D02*
G01X2295988Y4335780D01*
G01X3261188Y3370580D02*
G01X3303421Y3370580D01*
G01X1596403Y6096394D02*
G01X1676803Y6096394D01*
G01X1596403Y6046407D02*
G01X1676803Y6046407D01*
G01X3260061Y3683181D02*
G01X3278021Y3665220D01*
G01X3346601Y3708400D02*
G01X3459251Y3708400D01*
G01X3346601Y3581400D02*
G01X3459251Y3581400D01*
G01X1676803Y6096394D02*
G01X1681476Y6091720D01*
G01X3278021Y3665220D02*
G01X3303421Y3665220D01*
G01X3346601Y3708400D01*
G01X1676803Y6046407D02*
G01X1681476Y6051080D01*
G01X1706876Y6051080D01*
G01X3303421Y3624580D02*
G01X3346601Y3581400D01*
G01X1681476Y6091720D02*
G01X1723710Y6091720D01*
G01X3261188Y3624580D02*
G01X3303421Y3624580D01*
G01X1723710Y6091720D02*
G01X2809240Y5006190D01*
G01X2809240Y4531360D01*
G01X2768600Y4508500D02*
G01X2857500Y4419600D01*
G01X2857500Y4028268D01*
G01X3261188Y3624580D01*
G01X2809240Y4531360D02*
G01X2908300Y4432300D01*
G01X2908300Y4038600D01*
G01X3260061Y3686839D01*
G01X3260061Y3683181D01*
G01X1596403Y7607694D02*
G01X1676803Y7607694D01*
G01X1723710Y7603020D02*
G01X3260061Y6066669D01*
G01X3260061Y3937181D01*
G01X1596403Y7557707D02*
G01X1676803Y7557707D01*
G01X1706876Y7562380D02*
G01X3219421Y6049836D01*
G01X3219421Y3920347D01*
G01X3260061Y3937181D02*
G01X3278021Y3919220D01*
G01X3346601Y3962400D02*
G01X3459251Y3962400D01*
G01X3219421Y3920347D02*
G01X3261188Y3878580D01*
G01X3346601Y3835400D02*
G01X3459251Y3835400D01*
G01X1676803Y7607694D02*
G01X1681476Y7603020D01*
G01X3278021Y3919220D02*
G01X3303421Y3919220D01*
G01X3346601Y3962400D01*
G01X1676803Y7557707D02*
G01X1681476Y7562380D01*
G01X1706876Y7562380D01*
G01X3303421Y3878580D02*
G01X3346601Y3835400D01*
G01X3261188Y3878580D02*
G01X3303421Y3878580D01*
G01X1681476Y7603020D02*
G01X1723710Y7603020D01*
G01X1706876Y6051080D02*
G01X2768600Y4989356D01*
G01X2768600Y4508500D01*
G01X2875293Y1326479D02*
G01X2875293Y1368713D01*
G01X3257239Y1750659D01*
G01X3271714Y1750659D01*
G01X3326079Y1805025D01*
G01X3326079Y2504092D01*
G01X4022387Y3200400D01*
G01X4033749Y3200400D01*
G01X2995613Y1154100D02*
G01X2971561Y1178151D01*
G01X2971561Y1312970D01*
G01X3366719Y1708128D01*
G01X3366719Y2419071D01*
G01X3540161Y2592512D01*
G01X3565561Y2592512D01*
G01X3625137Y2532937D01*
G01X3650537Y2532937D01*
G01X3732900Y2615300D01*
G01X3673324Y2700275D02*
G01X3673324Y2725675D01*
G01X4021049Y3073400D01*
G01X4033749Y3073400D01*
G01X3732900Y2615300D02*
G01X3732900Y2640700D01*
G01X3673324Y2700275D01*
G01X2995613Y938200D02*
G01X2995613Y1154100D01*
G01X2795613Y938200D02*
G01X2795613Y1246800D01*
G01X2875293Y1326479D01*
G04 Track End*

M02*

