G04 Layer: TopPasteMaskLayer*
G04 EasyEDA Pro v2.2.44.9, 2025-12-02 00:09:12*
G04 Gerber Generator version 0.3*
G04 Scale: 100 percent, Rotated: No, Reflected: No*
G04 Dimensions in millimeters*
G04 Leading zeros omitted, absolute positions, 4 integers and 5 decimals*
G04 Generated by one-click*
%FSLAX45Y45*%
%MOMM*%
%ADD10R,0.8X0.9*%
%ADD11R,0.9X0.8*%
%ADD12R,1.0X0.75001*%
%ADD13O,1.74501X0.55999*%
%ADD14C,0.9958*%
G75*


G04 PolygonModel Start*
G36*
G01X2690000Y6249200D02*
G01X2644000Y6249200D01*
G01X2640000Y6253201D01*
G01X2640000Y6303264D01*
G01X2644000Y6307265D01*
G01X2690000Y6307265D01*
G01X2694000Y6303264D01*
G01X2694000Y6253201D01*
G01X2690000Y6249200D01*
G37*
G36*
G01X2690000Y6222200D02*
G01X2644000Y6222200D01*
G01X2640000Y6218199D01*
G01X2640000Y6168136D01*
G01X2644000Y6164136D01*
G01X2690000Y6164136D01*
G01X2694000Y6168136D01*
G01X2694000Y6218199D01*
G01X2690000Y6222200D01*
G37*
G36*
G01X2715400Y5906300D02*
G01X2669400Y5906300D01*
G01X2665400Y5910301D01*
G01X2665400Y5960364D01*
G01X2669400Y5964365D01*
G01X2715400Y5964365D01*
G01X2719400Y5960364D01*
G01X2719400Y5910301D01*
G01X2715400Y5906300D01*
G37*
G36*
G01X2715400Y5879300D02*
G01X2669400Y5879300D01*
G01X2665400Y5875299D01*
G01X2665400Y5825236D01*
G01X2669400Y5821236D01*
G01X2715400Y5821236D01*
G01X2719400Y5825236D01*
G01X2719400Y5875299D01*
G01X2715400Y5879300D01*
G37*
G36*
G01X2728100Y7798600D02*
G01X2682100Y7798600D01*
G01X2678100Y7802601D01*
G01X2678100Y7852664D01*
G01X2682100Y7856665D01*
G01X2728100Y7856665D01*
G01X2732100Y7852664D01*
G01X2732100Y7802601D01*
G01X2728100Y7798600D01*
G37*
G36*
G01X2728100Y7771600D02*
G01X2682100Y7771600D01*
G01X2678100Y7767599D01*
G01X2678100Y7717536D01*
G01X2682100Y7713536D01*
G01X2728100Y7713536D01*
G01X2732100Y7717536D01*
G01X2732100Y7767599D01*
G01X2728100Y7771600D01*
G37*
G36*
G01X2753500Y7443000D02*
G01X2707500Y7443000D01*
G01X2703500Y7447001D01*
G01X2703500Y7497064D01*
G01X2707500Y7501065D01*
G01X2753500Y7501065D01*
G01X2757500Y7497064D01*
G01X2757500Y7447001D01*
G01X2753500Y7443000D01*
G37*
G36*
G01X2753500Y7416000D02*
G01X2707500Y7416000D01*
G01X2703500Y7411999D01*
G01X2703500Y7361936D01*
G01X2707500Y7357936D01*
G01X2753500Y7357936D01*
G01X2757500Y7361936D01*
G01X2757500Y7411999D01*
G01X2753500Y7416000D01*
G37*
G36*
G01X1541404Y5981393D02*
G01X1651404Y5981393D01*
G01X1651404Y6011395D01*
G01X1541404Y6011395D01*
G01X1541404Y5981393D01*
G37*
G36*
G01X1651404Y5961383D02*
G01X1541404Y5961383D01*
G01X1541404Y5931380D01*
G01X1651404Y5931380D01*
G01X1651404Y5961383D01*
G37*
G36*
G01X1651404Y6471402D02*
G01X1541404Y6471402D01*
G01X1541404Y6411402D01*
G01X1651404Y6411402D01*
G01X1651404Y6471402D01*
G37*
G36*
G01X1541404Y6031405D02*
G01X1651404Y6031405D01*
G01X1651404Y6061408D01*
G01X1541404Y6061408D01*
G01X1541404Y6031405D01*
G37*
G36*
G01X1651404Y5911383D02*
G01X1541404Y5911383D01*
G01X1541404Y5851383D01*
G01X1651404Y5851383D01*
G01X1651404Y5911383D01*
G37*
G36*
G01X1541404Y5771398D02*
G01X1651404Y5771398D01*
G01X1651404Y5831398D01*
G01X1541404Y5831398D01*
G01X1541404Y5771398D01*
G37*
G36*
G01X1541404Y6081392D02*
G01X1651404Y6081392D01*
G01X1651404Y6111395D01*
G01X1541404Y6111395D01*
G01X1541404Y6081392D01*
G37*
G36*
G01X1541404Y6131405D02*
G01X1651404Y6131405D01*
G01X1651404Y6161408D01*
G01X1541404Y6161408D01*
G01X1541404Y6131405D01*
G37*
G36*
G01X1651404Y6391392D02*
G01X1541404Y6391392D01*
G01X1541404Y6331392D01*
G01X1651404Y6331392D01*
G01X1651404Y6391392D01*
G37*
G36*
G01X1541404Y6181392D02*
G01X1651404Y6181392D01*
G01X1651404Y6211395D01*
G01X1541404Y6211395D01*
G01X1541404Y6181392D01*
G37*
G36*
G01X1541404Y6231379D02*
G01X1651404Y6231379D01*
G01X1651404Y6261382D01*
G01X1541404Y6261382D01*
G01X1541404Y6231379D01*
G37*
G36*
G01X1541404Y6281392D02*
G01X1651404Y6281392D01*
G01X1651404Y6311395D01*
G01X1541404Y6311395D01*
G01X1541404Y6281392D01*
G37*
G36*
G01X1641244Y5684418D02*
G01X1641394Y5687405D01*
G01X1641394Y5690398D01*
G01X1641244Y5693385D01*
G01X1640947Y5696361D01*
G01X1640500Y5699321D01*
G01X1639908Y5702252D01*
G01X1639169Y5705152D01*
G01X1638287Y5708010D01*
G01X1637264Y5710822D01*
G01X1636103Y5713578D01*
G01X1634805Y5716275D01*
G01X1633372Y5718901D01*
G01X1631813Y5721454D01*
G01X1630129Y5723926D01*
G01X1628320Y5726311D01*
G01X1626398Y5728602D01*
G01X1624363Y5730796D01*
G01X1622222Y5732884D01*
G01X1619979Y5734865D01*
G01X1617640Y5736730D01*
G01X1615211Y5738475D01*
G01X1612697Y5740098D01*
G01X1610106Y5741594D01*
G01X1607444Y5742960D01*
G01X1604719Y5744190D01*
G01X1601932Y5745282D01*
G01X1599098Y5746237D01*
G01X1596217Y5747047D01*
G01X1593301Y5747713D01*
G01X1590355Y5748231D01*
G01X1587386Y5748604D01*
G01X1584401Y5748828D01*
G01X1581412Y5748901D01*
G01X1501412Y5748901D01*
G01X1498422Y5748828D01*
G01X1495438Y5748604D01*
G01X1492468Y5748231D01*
G01X1489522Y5747713D01*
G01X1486606Y5747047D01*
G01X1483726Y5746237D01*
G01X1480891Y5745282D01*
G01X1478105Y5744190D01*
G01X1475379Y5742960D01*
G01X1472717Y5741594D01*
G01X1470127Y5740098D01*
G01X1467612Y5738475D01*
G01X1465184Y5736730D01*
G01X1462844Y5734865D01*
G01X1460602Y5732884D01*
G01X1458460Y5730796D01*
G01X1456426Y5728602D01*
G01X1454503Y5726311D01*
G01X1452695Y5723926D01*
G01X1451011Y5721454D01*
G01X1449451Y5718901D01*
G01X1448018Y5716275D01*
G01X1446721Y5713578D01*
G01X1445560Y5710822D01*
G01X1444536Y5708010D01*
G01X1443655Y5705152D01*
G01X1442916Y5702252D01*
G01X1442324Y5699321D01*
G01X1441877Y5696361D01*
G01X1441580Y5693385D01*
G01X1441430Y5690398D01*
G01X1441430Y5687405D01*
G01X1441580Y5684418D01*
G01X1441877Y5681442D01*
G01X1442324Y5678482D01*
G01X1442916Y5675551D01*
G01X1443655Y5672651D01*
G01X1444536Y5669793D01*
G01X1445560Y5666981D01*
G01X1446721Y5664225D01*
G01X1448018Y5661528D01*
G01X1449451Y5658902D01*
G01X1451011Y5656349D01*
G01X1452695Y5653877D01*
G01X1454503Y5651492D01*
G01X1456426Y5649201D01*
G01X1458460Y5647007D01*
G01X1460602Y5644919D01*
G01X1462844Y5642938D01*
G01X1465184Y5641073D01*
G01X1467612Y5639328D01*
G01X1470127Y5637705D01*
G01X1472717Y5636209D01*
G01X1475379Y5634843D01*
G01X1478105Y5633613D01*
G01X1480891Y5632521D01*
G01X1483726Y5631566D01*
G01X1486606Y5630756D01*
G01X1489522Y5630090D01*
G01X1492468Y5629572D01*
G01X1495438Y5629199D01*
G01X1498422Y5628975D01*
G01X1501412Y5628902D01*
G01X1581412Y5628902D01*
G01X1584401Y5628975D01*
G01X1587386Y5629199D01*
G01X1590355Y5629572D01*
G01X1593301Y5630090D01*
G01X1596217Y5630756D01*
G01X1599098Y5631566D01*
G01X1601932Y5632521D01*
G01X1604719Y5633613D01*
G01X1607444Y5634843D01*
G01X1610106Y5636209D01*
G01X1612697Y5637705D01*
G01X1615211Y5639328D01*
G01X1617640Y5641073D01*
G01X1619979Y5642938D01*
G01X1622222Y5644919D01*
G01X1624363Y5647007D01*
G01X1626398Y5649201D01*
G01X1628320Y5651492D01*
G01X1630129Y5653877D01*
G01X1631813Y5656349D01*
G01X1633372Y5658902D01*
G01X1634805Y5661528D01*
G01X1636103Y5664225D01*
G01X1637264Y5666981D01*
G01X1638287Y5669793D01*
G01X1639169Y5672651D01*
G01X1639908Y5675551D01*
G01X1640500Y5678482D01*
G01X1640947Y5681442D01*
G01X1641244Y5684418D01*
G37*
G36*
G01X1641394Y6555395D02*
G01X1641244Y6558382D01*
G01X1640947Y6561358D01*
G01X1640500Y6564318D01*
G01X1639908Y6567249D01*
G01X1639169Y6570149D01*
G01X1638287Y6573007D01*
G01X1637264Y6575819D01*
G01X1636103Y6578575D01*
G01X1634805Y6581272D01*
G01X1633372Y6583898D01*
G01X1631813Y6586451D01*
G01X1630129Y6588923D01*
G01X1628320Y6591308D01*
G01X1626398Y6593599D01*
G01X1624363Y6595793D01*
G01X1622222Y6597881D01*
G01X1619979Y6599862D01*
G01X1617640Y6601727D01*
G01X1615211Y6603472D01*
G01X1612697Y6605095D01*
G01X1610106Y6606591D01*
G01X1607444Y6607957D01*
G01X1604719Y6609187D01*
G01X1601932Y6610279D01*
G01X1599098Y6611234D01*
G01X1596217Y6612044D01*
G01X1593301Y6612710D01*
G01X1590355Y6613228D01*
G01X1587386Y6613601D01*
G01X1584401Y6613825D01*
G01X1581412Y6613898D01*
G01X1501412Y6613898D01*
G01X1498422Y6613825D01*
G01X1495438Y6613601D01*
G01X1492468Y6613228D01*
G01X1489522Y6612710D01*
G01X1486606Y6612044D01*
G01X1483726Y6611234D01*
G01X1480891Y6610279D01*
G01X1478105Y6609187D01*
G01X1475379Y6607957D01*
G01X1472717Y6606591D01*
G01X1470127Y6605095D01*
G01X1467612Y6603472D01*
G01X1465184Y6601727D01*
G01X1462844Y6599862D01*
G01X1460602Y6597881D01*
G01X1458460Y6595793D01*
G01X1456426Y6593599D01*
G01X1454503Y6591308D01*
G01X1452695Y6588923D01*
G01X1451011Y6586451D01*
G01X1449451Y6583898D01*
G01X1448018Y6581272D01*
G01X1446721Y6578575D01*
G01X1445560Y6575819D01*
G01X1444536Y6573007D01*
G01X1443655Y6570149D01*
G01X1442916Y6567249D01*
G01X1442324Y6564318D01*
G01X1441877Y6561358D01*
G01X1441580Y6558382D01*
G01X1441430Y6555395D01*
G01X1441430Y6552402D01*
G01X1441580Y6549415D01*
G01X1441877Y6546439D01*
G01X1442324Y6543479D01*
G01X1442916Y6540548D01*
G01X1443655Y6537648D01*
G01X1444536Y6534790D01*
G01X1445560Y6531978D01*
G01X1446721Y6529222D01*
G01X1448018Y6526525D01*
G01X1449451Y6523899D01*
G01X1451011Y6521346D01*
G01X1452695Y6518874D01*
G01X1454503Y6516489D01*
G01X1456426Y6514198D01*
G01X1458460Y6512004D01*
G01X1460602Y6509916D01*
G01X1462844Y6507935D01*
G01X1465184Y6506070D01*
G01X1467612Y6504325D01*
G01X1470127Y6502702D01*
G01X1472717Y6501206D01*
G01X1475379Y6499840D01*
G01X1478105Y6498610D01*
G01X1480891Y6497518D01*
G01X1483726Y6496563D01*
G01X1486606Y6495753D01*
G01X1489522Y6495087D01*
G01X1492468Y6494569D01*
G01X1495438Y6494196D01*
G01X1498422Y6493972D01*
G01X1501412Y6493899D01*
G01X1581412Y6493899D01*
G01X1584401Y6493972D01*
G01X1587386Y6494196D01*
G01X1590355Y6494569D01*
G01X1593301Y6495087D01*
G01X1596217Y6495753D01*
G01X1599098Y6496563D01*
G01X1601932Y6497518D01*
G01X1604719Y6498610D01*
G01X1607444Y6499840D01*
G01X1610106Y6501206D01*
G01X1612697Y6502702D01*
G01X1615211Y6504325D01*
G01X1617640Y6506070D01*
G01X1619979Y6507935D01*
G01X1622222Y6509916D01*
G01X1624363Y6512004D01*
G01X1626398Y6514198D01*
G01X1628320Y6516489D01*
G01X1630129Y6518874D01*
G01X1631813Y6521346D01*
G01X1633372Y6523899D01*
G01X1634805Y6526525D01*
G01X1636103Y6529222D01*
G01X1637264Y6531978D01*
G01X1638287Y6534790D01*
G01X1639169Y6537648D01*
G01X1639908Y6540548D01*
G01X1640500Y6543479D01*
G01X1640947Y6546439D01*
G01X1641244Y6549415D01*
G01X1641394Y6552402D01*
G01X1641394Y6555395D01*
G37*
G36*
G01X1196228Y6549415D02*
G01X1196378Y6552402D01*
G01X1196378Y6555395D01*
G01X1196228Y6558382D01*
G01X1195931Y6561358D01*
G01X1195484Y6564318D01*
G01X1194892Y6567249D01*
G01X1194153Y6570149D01*
G01X1193272Y6573007D01*
G01X1192248Y6575819D01*
G01X1191087Y6578575D01*
G01X1189789Y6581272D01*
G01X1188357Y6583898D01*
G01X1186797Y6586451D01*
G01X1185113Y6588923D01*
G01X1183305Y6591308D01*
G01X1181382Y6593599D01*
G01X1179347Y6595793D01*
G01X1177206Y6597881D01*
G01X1174963Y6599862D01*
G01X1172624Y6601727D01*
G01X1170196Y6603472D01*
G01X1167681Y6605095D01*
G01X1165090Y6606591D01*
G01X1162428Y6607957D01*
G01X1159703Y6609187D01*
G01X1156917Y6610279D01*
G01X1154082Y6611234D01*
G01X1151202Y6612044D01*
G01X1148286Y6612710D01*
G01X1145339Y6613228D01*
G01X1142370Y6613601D01*
G01X1139386Y6613825D01*
G01X1136396Y6613898D01*
G01X1106396Y6613898D01*
G01X1103406Y6613825D01*
G01X1100422Y6613601D01*
G01X1097453Y6613228D01*
G01X1094506Y6612710D01*
G01X1091590Y6612044D01*
G01X1088710Y6611234D01*
G01X1085875Y6610279D01*
G01X1083089Y6609187D01*
G01X1080364Y6607957D01*
G01X1077702Y6606591D01*
G01X1075111Y6605095D01*
G01X1072596Y6603472D01*
G01X1070168Y6601727D01*
G01X1067829Y6599862D01*
G01X1065586Y6597881D01*
G01X1063445Y6595793D01*
G01X1061410Y6593599D01*
G01X1059487Y6591308D01*
G01X1057679Y6588923D01*
G01X1055995Y6586451D01*
G01X1054435Y6583898D01*
G01X1053003Y6581272D01*
G01X1051705Y6578575D01*
G01X1050544Y6575819D01*
G01X1049520Y6573007D01*
G01X1048639Y6570149D01*
G01X1047900Y6567249D01*
G01X1047308Y6564318D01*
G01X1046861Y6561358D01*
G01X1046564Y6558382D01*
G01X1046414Y6555395D01*
G01X1046414Y6552402D01*
G01X1046564Y6549415D01*
G01X1046861Y6546439D01*
G01X1047308Y6543479D01*
G01X1047900Y6540548D01*
G01X1048639Y6537648D01*
G01X1049520Y6534790D01*
G01X1050544Y6531978D01*
G01X1051705Y6529222D01*
G01X1053003Y6526525D01*
G01X1054435Y6523899D01*
G01X1055995Y6521346D01*
G01X1057679Y6518874D01*
G01X1059487Y6516489D01*
G01X1061410Y6514198D01*
G01X1063445Y6512004D01*
G01X1065586Y6509916D01*
G01X1067829Y6507935D01*
G01X1070168Y6506070D01*
G01X1072596Y6504325D01*
G01X1075111Y6502702D01*
G01X1077702Y6501206D01*
G01X1080364Y6499840D01*
G01X1083089Y6498610D01*
G01X1085875Y6497518D01*
G01X1088710Y6496563D01*
G01X1091590Y6495753D01*
G01X1094506Y6495087D01*
G01X1097453Y6494569D01*
G01X1100422Y6494196D01*
G01X1103406Y6493972D01*
G01X1106396Y6493899D01*
G01X1136396Y6493899D01*
G01X1139386Y6493972D01*
G01X1142370Y6494196D01*
G01X1145339Y6494569D01*
G01X1148286Y6495087D01*
G01X1151202Y6495753D01*
G01X1154082Y6496563D01*
G01X1156917Y6497518D01*
G01X1159703Y6498610D01*
G01X1162428Y6499840D01*
G01X1165090Y6501206D01*
G01X1167681Y6502702D01*
G01X1170196Y6504325D01*
G01X1172624Y6506070D01*
G01X1174963Y6507935D01*
G01X1177206Y6509916D01*
G01X1179347Y6512004D01*
G01X1181382Y6514198D01*
G01X1183305Y6516489D01*
G01X1185113Y6518874D01*
G01X1186797Y6521346D01*
G01X1188357Y6523899D01*
G01X1189789Y6526525D01*
G01X1191087Y6529222D01*
G01X1192248Y6531978D01*
G01X1193272Y6534790D01*
G01X1194153Y6537648D01*
G01X1194892Y6540548D01*
G01X1195484Y6543479D01*
G01X1195931Y6546439D01*
G01X1196228Y6549415D01*
G37*
G36*
G01X1196378Y5690398D02*
G01X1196228Y5693385D01*
G01X1195931Y5696361D01*
G01X1195484Y5699321D01*
G01X1194892Y5702252D01*
G01X1194153Y5705152D01*
G01X1193272Y5708010D01*
G01X1192248Y5710822D01*
G01X1191087Y5713578D01*
G01X1189789Y5716275D01*
G01X1188357Y5718901D01*
G01X1186797Y5721454D01*
G01X1185113Y5723926D01*
G01X1183305Y5726311D01*
G01X1181382Y5728602D01*
G01X1179347Y5730796D01*
G01X1177206Y5732884D01*
G01X1174963Y5734865D01*
G01X1172624Y5736730D01*
G01X1170196Y5738475D01*
G01X1167681Y5740098D01*
G01X1165090Y5741594D01*
G01X1162428Y5742960D01*
G01X1159703Y5744190D01*
G01X1156917Y5745282D01*
G01X1154082Y5746237D01*
G01X1151202Y5747047D01*
G01X1148286Y5747713D01*
G01X1145339Y5748231D01*
G01X1142370Y5748604D01*
G01X1139386Y5748828D01*
G01X1136396Y5748901D01*
G01X1106396Y5748901D01*
G01X1103406Y5748828D01*
G01X1100422Y5748604D01*
G01X1097453Y5748231D01*
G01X1094506Y5747713D01*
G01X1091590Y5747047D01*
G01X1088710Y5746237D01*
G01X1085875Y5745282D01*
G01X1083089Y5744190D01*
G01X1080364Y5742960D01*
G01X1077702Y5741594D01*
G01X1075111Y5740098D01*
G01X1072596Y5738475D01*
G01X1070168Y5736730D01*
G01X1067829Y5734865D01*
G01X1065586Y5732884D01*
G01X1063445Y5730796D01*
G01X1061410Y5728602D01*
G01X1059487Y5726311D01*
G01X1057679Y5723926D01*
G01X1055995Y5721454D01*
G01X1054435Y5718901D01*
G01X1053003Y5716275D01*
G01X1051705Y5713578D01*
G01X1050544Y5710822D01*
G01X1049520Y5708010D01*
G01X1048639Y5705152D01*
G01X1047900Y5702252D01*
G01X1047308Y5699321D01*
G01X1046861Y5696361D01*
G01X1046564Y5693385D01*
G01X1046414Y5690398D01*
G01X1046414Y5687405D01*
G01X1046564Y5684418D01*
G01X1046861Y5681442D01*
G01X1047308Y5678482D01*
G01X1047900Y5675551D01*
G01X1048639Y5672651D01*
G01X1049520Y5669793D01*
G01X1050544Y5666981D01*
G01X1051705Y5664225D01*
G01X1053003Y5661528D01*
G01X1054435Y5658902D01*
G01X1055995Y5656349D01*
G01X1057679Y5653877D01*
G01X1059487Y5651492D01*
G01X1061410Y5649201D01*
G01X1063445Y5647007D01*
G01X1065586Y5644919D01*
G01X1067829Y5642938D01*
G01X1070168Y5641073D01*
G01X1072596Y5639328D01*
G01X1075111Y5637705D01*
G01X1077702Y5636209D01*
G01X1080364Y5634843D01*
G01X1083089Y5633613D01*
G01X1085875Y5632521D01*
G01X1088710Y5631566D01*
G01X1091590Y5630756D01*
G01X1094506Y5630090D01*
G01X1097453Y5629572D01*
G01X1100422Y5629199D01*
G01X1103406Y5628975D01*
G01X1106396Y5628902D01*
G01X1136396Y5628902D01*
G01X1139386Y5628975D01*
G01X1142370Y5629199D01*
G01X1145339Y5629572D01*
G01X1148286Y5630090D01*
G01X1151202Y5630756D01*
G01X1154082Y5631566D01*
G01X1156917Y5632521D01*
G01X1159703Y5633613D01*
G01X1162428Y5634843D01*
G01X1165090Y5636209D01*
G01X1167681Y5637705D01*
G01X1170196Y5639328D01*
G01X1172624Y5641073D01*
G01X1174963Y5642938D01*
G01X1177206Y5644919D01*
G01X1179347Y5647007D01*
G01X1181382Y5649201D01*
G01X1183305Y5651492D01*
G01X1185113Y5653877D01*
G01X1186797Y5656349D01*
G01X1188357Y5658902D01*
G01X1189789Y5661528D01*
G01X1191087Y5664225D01*
G01X1192248Y5666981D01*
G01X1193272Y5669793D01*
G01X1194153Y5672651D01*
G01X1194892Y5675551D01*
G01X1195484Y5678482D01*
G01X1195931Y5681442D01*
G01X1196228Y5684418D01*
G01X1196378Y5687405D01*
G01X1196378Y5690398D01*
G37*
G36*
G01X1541404Y7492693D02*
G01X1651404Y7492693D01*
G01X1651404Y7522695D01*
G01X1541404Y7522695D01*
G01X1541404Y7492693D01*
G37*
G36*
G01X1651404Y7472683D02*
G01X1541404Y7472683D01*
G01X1541404Y7442680D01*
G01X1651404Y7442680D01*
G01X1651404Y7472683D01*
G37*
G36*
G01X1651404Y7982702D02*
G01X1541404Y7982702D01*
G01X1541404Y7922702D01*
G01X1651404Y7922702D01*
G01X1651404Y7982702D01*
G37*
G36*
G01X1541404Y7542705D02*
G01X1651404Y7542705D01*
G01X1651404Y7572708D01*
G01X1541404Y7572708D01*
G01X1541404Y7542705D01*
G37*
G36*
G01X1651404Y7422683D02*
G01X1541404Y7422683D01*
G01X1541404Y7362683D01*
G01X1651404Y7362683D01*
G01X1651404Y7422683D01*
G37*
G36*
G01X1541404Y7282698D02*
G01X1651404Y7282698D01*
G01X1651404Y7342698D01*
G01X1541404Y7342698D01*
G01X1541404Y7282698D01*
G37*
G36*
G01X1541404Y7592692D02*
G01X1651404Y7592692D01*
G01X1651404Y7622695D01*
G01X1541404Y7622695D01*
G01X1541404Y7592692D01*
G37*
G36*
G01X1541404Y7642705D02*
G01X1651404Y7642705D01*
G01X1651404Y7672708D01*
G01X1541404Y7672708D01*
G01X1541404Y7642705D01*
G37*
G36*
G01X1651404Y7902692D02*
G01X1541404Y7902692D01*
G01X1541404Y7842692D01*
G01X1651404Y7842692D01*
G01X1651404Y7902692D01*
G37*
G36*
G01X1541404Y7692692D02*
G01X1651404Y7692692D01*
G01X1651404Y7722695D01*
G01X1541404Y7722695D01*
G01X1541404Y7692692D01*
G37*
G36*
G01X1541404Y7742679D02*
G01X1651404Y7742679D01*
G01X1651404Y7772682D01*
G01X1541404Y7772682D01*
G01X1541404Y7742679D01*
G37*
G36*
G01X1541404Y7792692D02*
G01X1651404Y7792692D01*
G01X1651404Y7822695D01*
G01X1541404Y7822695D01*
G01X1541404Y7792692D01*
G37*
G36*
G01X1641244Y7195718D02*
G01X1641394Y7198705D01*
G01X1641394Y7201698D01*
G01X1641244Y7204685D01*
G01X1640947Y7207661D01*
G01X1640500Y7210621D01*
G01X1639908Y7213552D01*
G01X1639169Y7216452D01*
G01X1638287Y7219310D01*
G01X1637264Y7222122D01*
G01X1636103Y7224878D01*
G01X1634805Y7227575D01*
G01X1633372Y7230201D01*
G01X1631813Y7232754D01*
G01X1630129Y7235226D01*
G01X1628320Y7237611D01*
G01X1626398Y7239902D01*
G01X1624363Y7242096D01*
G01X1622222Y7244184D01*
G01X1619979Y7246165D01*
G01X1617640Y7248030D01*
G01X1615211Y7249775D01*
G01X1612697Y7251398D01*
G01X1610106Y7252894D01*
G01X1607444Y7254260D01*
G01X1604719Y7255490D01*
G01X1601932Y7256582D01*
G01X1599098Y7257537D01*
G01X1596217Y7258347D01*
G01X1593301Y7259013D01*
G01X1590355Y7259531D01*
G01X1587386Y7259904D01*
G01X1584401Y7260128D01*
G01X1581412Y7260201D01*
G01X1501412Y7260201D01*
G01X1498422Y7260128D01*
G01X1495438Y7259904D01*
G01X1492468Y7259531D01*
G01X1489522Y7259013D01*
G01X1486606Y7258347D01*
G01X1483726Y7257537D01*
G01X1480891Y7256582D01*
G01X1478105Y7255490D01*
G01X1475379Y7254260D01*
G01X1472717Y7252894D01*
G01X1470127Y7251398D01*
G01X1467612Y7249775D01*
G01X1465184Y7248030D01*
G01X1462844Y7246165D01*
G01X1460602Y7244184D01*
G01X1458460Y7242096D01*
G01X1456426Y7239902D01*
G01X1454503Y7237611D01*
G01X1452695Y7235226D01*
G01X1451011Y7232754D01*
G01X1449451Y7230201D01*
G01X1448018Y7227575D01*
G01X1446721Y7224878D01*
G01X1445560Y7222122D01*
G01X1444536Y7219310D01*
G01X1443655Y7216452D01*
G01X1442916Y7213552D01*
G01X1442324Y7210621D01*
G01X1441877Y7207661D01*
G01X1441580Y7204685D01*
G01X1441430Y7201698D01*
G01X1441430Y7198705D01*
G01X1441580Y7195718D01*
G01X1441877Y7192742D01*
G01X1442324Y7189782D01*
G01X1442916Y7186851D01*
G01X1443655Y7183951D01*
G01X1444536Y7181093D01*
G01X1445560Y7178281D01*
G01X1446721Y7175525D01*
G01X1448018Y7172828D01*
G01X1449451Y7170202D01*
G01X1451011Y7167649D01*
G01X1452695Y7165177D01*
G01X1454503Y7162792D01*
G01X1456426Y7160501D01*
G01X1458460Y7158307D01*
G01X1460602Y7156219D01*
G01X1462844Y7154238D01*
G01X1465184Y7152373D01*
G01X1467612Y7150628D01*
G01X1470127Y7149005D01*
G01X1472717Y7147509D01*
G01X1475379Y7146143D01*
G01X1478105Y7144913D01*
G01X1480891Y7143821D01*
G01X1483726Y7142866D01*
G01X1486606Y7142056D01*
G01X1489522Y7141390D01*
G01X1492468Y7140872D01*
G01X1495438Y7140499D01*
G01X1498422Y7140275D01*
G01X1501412Y7140202D01*
G01X1581412Y7140202D01*
G01X1584401Y7140275D01*
G01X1587386Y7140499D01*
G01X1590355Y7140872D01*
G01X1593301Y7141390D01*
G01X1596217Y7142056D01*
G01X1599098Y7142866D01*
G01X1601932Y7143821D01*
G01X1604719Y7144913D01*
G01X1607444Y7146143D01*
G01X1610106Y7147509D01*
G01X1612697Y7149005D01*
G01X1615211Y7150628D01*
G01X1617640Y7152373D01*
G01X1619979Y7154238D01*
G01X1622222Y7156219D01*
G01X1624363Y7158307D01*
G01X1626398Y7160501D01*
G01X1628320Y7162792D01*
G01X1630129Y7165177D01*
G01X1631813Y7167649D01*
G01X1633372Y7170202D01*
G01X1634805Y7172828D01*
G01X1636103Y7175525D01*
G01X1637264Y7178281D01*
G01X1638287Y7181093D01*
G01X1639169Y7183951D01*
G01X1639908Y7186851D01*
G01X1640500Y7189782D01*
G01X1640947Y7192742D01*
G01X1641244Y7195718D01*
G37*
G36*
G01X1641394Y8066695D02*
G01X1641244Y8069682D01*
G01X1640947Y8072658D01*
G01X1640500Y8075618D01*
G01X1639908Y8078549D01*
G01X1639169Y8081449D01*
G01X1638287Y8084307D01*
G01X1637264Y8087119D01*
G01X1636103Y8089875D01*
G01X1634805Y8092572D01*
G01X1633372Y8095198D01*
G01X1631813Y8097751D01*
G01X1630129Y8100223D01*
G01X1628320Y8102608D01*
G01X1626398Y8104899D01*
G01X1624363Y8107093D01*
G01X1622222Y8109181D01*
G01X1619979Y8111162D01*
G01X1617640Y8113027D01*
G01X1615211Y8114772D01*
G01X1612697Y8116395D01*
G01X1610106Y8117891D01*
G01X1607444Y8119257D01*
G01X1604719Y8120487D01*
G01X1601932Y8121579D01*
G01X1599098Y8122534D01*
G01X1596217Y8123344D01*
G01X1593301Y8124010D01*
G01X1590355Y8124528D01*
G01X1587386Y8124901D01*
G01X1584401Y8125125D01*
G01X1581412Y8125198D01*
G01X1501412Y8125198D01*
G01X1498422Y8125125D01*
G01X1495438Y8124901D01*
G01X1492468Y8124528D01*
G01X1489522Y8124010D01*
G01X1486606Y8123344D01*
G01X1483726Y8122534D01*
G01X1480891Y8121579D01*
G01X1478105Y8120487D01*
G01X1475379Y8119257D01*
G01X1472717Y8117891D01*
G01X1470127Y8116395D01*
G01X1467612Y8114772D01*
G01X1465184Y8113027D01*
G01X1462844Y8111162D01*
G01X1460602Y8109181D01*
G01X1458460Y8107093D01*
G01X1456426Y8104899D01*
G01X1454503Y8102608D01*
G01X1452695Y8100223D01*
G01X1451011Y8097751D01*
G01X1449451Y8095198D01*
G01X1448018Y8092572D01*
G01X1446721Y8089875D01*
G01X1445560Y8087119D01*
G01X1444536Y8084307D01*
G01X1443655Y8081449D01*
G01X1442916Y8078549D01*
G01X1442324Y8075618D01*
G01X1441877Y8072658D01*
G01X1441580Y8069682D01*
G01X1441430Y8066695D01*
G01X1441430Y8063702D01*
G01X1441580Y8060715D01*
G01X1441877Y8057739D01*
G01X1442324Y8054779D01*
G01X1442916Y8051848D01*
G01X1443655Y8048948D01*
G01X1444536Y8046090D01*
G01X1445560Y8043278D01*
G01X1446721Y8040522D01*
G01X1448018Y8037825D01*
G01X1449451Y8035199D01*
G01X1451011Y8032646D01*
G01X1452695Y8030174D01*
G01X1454503Y8027789D01*
G01X1456426Y8025498D01*
G01X1458460Y8023304D01*
G01X1460602Y8021216D01*
G01X1462844Y8019235D01*
G01X1465184Y8017370D01*
G01X1467612Y8015625D01*
G01X1470127Y8014002D01*
G01X1472717Y8012506D01*
G01X1475379Y8011140D01*
G01X1478105Y8009910D01*
G01X1480891Y8008818D01*
G01X1483726Y8007863D01*
G01X1486606Y8007053D01*
G01X1489522Y8006387D01*
G01X1492468Y8005869D01*
G01X1495438Y8005496D01*
G01X1498422Y8005272D01*
G01X1501412Y8005199D01*
G01X1581412Y8005199D01*
G01X1584401Y8005272D01*
G01X1587386Y8005496D01*
G01X1590355Y8005869D01*
G01X1593301Y8006387D01*
G01X1596217Y8007053D01*
G01X1599098Y8007863D01*
G01X1601932Y8008818D01*
G01X1604719Y8009910D01*
G01X1607444Y8011140D01*
G01X1610106Y8012506D01*
G01X1612697Y8014002D01*
G01X1615211Y8015625D01*
G01X1617640Y8017370D01*
G01X1619979Y8019235D01*
G01X1622222Y8021216D01*
G01X1624363Y8023304D01*
G01X1626398Y8025498D01*
G01X1628320Y8027789D01*
G01X1630129Y8030174D01*
G01X1631813Y8032646D01*
G01X1633372Y8035199D01*
G01X1634805Y8037825D01*
G01X1636103Y8040522D01*
G01X1637264Y8043278D01*
G01X1638287Y8046090D01*
G01X1639169Y8048948D01*
G01X1639908Y8051848D01*
G01X1640500Y8054779D01*
G01X1640947Y8057739D01*
G01X1641244Y8060715D01*
G01X1641394Y8063702D01*
G01X1641394Y8066695D01*
G37*
G36*
G01X1196228Y8060715D02*
G01X1196378Y8063702D01*
G01X1196378Y8066695D01*
G01X1196228Y8069682D01*
G01X1195931Y8072658D01*
G01X1195484Y8075618D01*
G01X1194892Y8078549D01*
G01X1194153Y8081449D01*
G01X1193272Y8084307D01*
G01X1192248Y8087119D01*
G01X1191087Y8089875D01*
G01X1189789Y8092572D01*
G01X1188357Y8095198D01*
G01X1186797Y8097751D01*
G01X1185113Y8100223D01*
G01X1183305Y8102608D01*
G01X1181382Y8104899D01*
G01X1179347Y8107093D01*
G01X1177206Y8109181D01*
G01X1174963Y8111162D01*
G01X1172624Y8113027D01*
G01X1170196Y8114772D01*
G01X1167681Y8116395D01*
G01X1165090Y8117891D01*
G01X1162428Y8119257D01*
G01X1159703Y8120487D01*
G01X1156917Y8121579D01*
G01X1154082Y8122534D01*
G01X1151202Y8123344D01*
G01X1148286Y8124010D01*
G01X1145339Y8124528D01*
G01X1142370Y8124901D01*
G01X1139386Y8125125D01*
G01X1136396Y8125198D01*
G01X1106396Y8125198D01*
G01X1103406Y8125125D01*
G01X1100422Y8124901D01*
G01X1097453Y8124528D01*
G01X1094506Y8124010D01*
G01X1091590Y8123344D01*
G01X1088710Y8122534D01*
G01X1085875Y8121579D01*
G01X1083089Y8120487D01*
G01X1080364Y8119257D01*
G01X1077702Y8117891D01*
G01X1075111Y8116395D01*
G01X1072596Y8114772D01*
G01X1070168Y8113027D01*
G01X1067829Y8111162D01*
G01X1065586Y8109181D01*
G01X1063445Y8107093D01*
G01X1061410Y8104899D01*
G01X1059487Y8102608D01*
G01X1057679Y8100223D01*
G01X1055995Y8097751D01*
G01X1054435Y8095198D01*
G01X1053003Y8092572D01*
G01X1051705Y8089875D01*
G01X1050544Y8087119D01*
G01X1049520Y8084307D01*
G01X1048639Y8081449D01*
G01X1047900Y8078549D01*
G01X1047308Y8075618D01*
G01X1046861Y8072658D01*
G01X1046564Y8069682D01*
G01X1046414Y8066695D01*
G01X1046414Y8063702D01*
G01X1046564Y8060715D01*
G01X1046861Y8057739D01*
G01X1047308Y8054779D01*
G01X1047900Y8051848D01*
G01X1048639Y8048948D01*
G01X1049520Y8046090D01*
G01X1050544Y8043278D01*
G01X1051705Y8040522D01*
G01X1053003Y8037825D01*
G01X1054435Y8035199D01*
G01X1055995Y8032646D01*
G01X1057679Y8030174D01*
G01X1059487Y8027789D01*
G01X1061410Y8025498D01*
G01X1063445Y8023304D01*
G01X1065586Y8021216D01*
G01X1067829Y8019235D01*
G01X1070168Y8017370D01*
G01X1072596Y8015625D01*
G01X1075111Y8014002D01*
G01X1077702Y8012506D01*
G01X1080364Y8011140D01*
G01X1083089Y8009910D01*
G01X1085875Y8008818D01*
G01X1088710Y8007863D01*
G01X1091590Y8007053D01*
G01X1094506Y8006387D01*
G01X1097453Y8005869D01*
G01X1100422Y8005496D01*
G01X1103406Y8005272D01*
G01X1106396Y8005199D01*
G01X1136396Y8005199D01*
G01X1139386Y8005272D01*
G01X1142370Y8005496D01*
G01X1145339Y8005869D01*
G01X1148286Y8006387D01*
G01X1151202Y8007053D01*
G01X1154082Y8007863D01*
G01X1156917Y8008818D01*
G01X1159703Y8009910D01*
G01X1162428Y8011140D01*
G01X1165090Y8012506D01*
G01X1167681Y8014002D01*
G01X1170196Y8015625D01*
G01X1172624Y8017370D01*
G01X1174963Y8019235D01*
G01X1177206Y8021216D01*
G01X1179347Y8023304D01*
G01X1181382Y8025498D01*
G01X1183305Y8027789D01*
G01X1185113Y8030174D01*
G01X1186797Y8032646D01*
G01X1188357Y8035199D01*
G01X1189789Y8037825D01*
G01X1191087Y8040522D01*
G01X1192248Y8043278D01*
G01X1193272Y8046090D01*
G01X1194153Y8048948D01*
G01X1194892Y8051848D01*
G01X1195484Y8054779D01*
G01X1195931Y8057739D01*
G01X1196228Y8060715D01*
G37*
G36*
G01X1196378Y7201698D02*
G01X1196228Y7204685D01*
G01X1195931Y7207661D01*
G01X1195484Y7210621D01*
G01X1194892Y7213552D01*
G01X1194153Y7216452D01*
G01X1193272Y7219310D01*
G01X1192248Y7222122D01*
G01X1191087Y7224878D01*
G01X1189789Y7227575D01*
G01X1188357Y7230201D01*
G01X1186797Y7232754D01*
G01X1185113Y7235226D01*
G01X1183305Y7237611D01*
G01X1181382Y7239902D01*
G01X1179347Y7242096D01*
G01X1177206Y7244184D01*
G01X1174963Y7246165D01*
G01X1172624Y7248030D01*
G01X1170196Y7249775D01*
G01X1167681Y7251398D01*
G01X1165090Y7252894D01*
G01X1162428Y7254260D01*
G01X1159703Y7255490D01*
G01X1156917Y7256582D01*
G01X1154082Y7257537D01*
G01X1151202Y7258347D01*
G01X1148286Y7259013D01*
G01X1145339Y7259531D01*
G01X1142370Y7259904D01*
G01X1139386Y7260128D01*
G01X1136396Y7260201D01*
G01X1106396Y7260201D01*
G01X1103406Y7260128D01*
G01X1100422Y7259904D01*
G01X1097453Y7259531D01*
G01X1094506Y7259013D01*
G01X1091590Y7258347D01*
G01X1088710Y7257537D01*
G01X1085875Y7256582D01*
G01X1083089Y7255490D01*
G01X1080364Y7254260D01*
G01X1077702Y7252894D01*
G01X1075111Y7251398D01*
G01X1072596Y7249775D01*
G01X1070168Y7248030D01*
G01X1067829Y7246165D01*
G01X1065586Y7244184D01*
G01X1063445Y7242096D01*
G01X1061410Y7239902D01*
G01X1059487Y7237611D01*
G01X1057679Y7235226D01*
G01X1055995Y7232754D01*
G01X1054435Y7230201D01*
G01X1053003Y7227575D01*
G01X1051705Y7224878D01*
G01X1050544Y7222122D01*
G01X1049520Y7219310D01*
G01X1048639Y7216452D01*
G01X1047900Y7213552D01*
G01X1047308Y7210621D01*
G01X1046861Y7207661D01*
G01X1046564Y7204685D01*
G01X1046414Y7201698D01*
G01X1046414Y7198705D01*
G01X1046564Y7195718D01*
G01X1046861Y7192742D01*
G01X1047308Y7189782D01*
G01X1047900Y7186851D01*
G01X1048639Y7183951D01*
G01X1049520Y7181093D01*
G01X1050544Y7178281D01*
G01X1051705Y7175525D01*
G01X1053003Y7172828D01*
G01X1054435Y7170202D01*
G01X1055995Y7167649D01*
G01X1057679Y7165177D01*
G01X1059487Y7162792D01*
G01X1061410Y7160501D01*
G01X1063445Y7158307D01*
G01X1065586Y7156219D01*
G01X1067829Y7154238D01*
G01X1070168Y7152373D01*
G01X1072596Y7150628D01*
G01X1075111Y7149005D01*
G01X1077702Y7147509D01*
G01X1080364Y7146143D01*
G01X1083089Y7144913D01*
G01X1085875Y7143821D01*
G01X1088710Y7142866D01*
G01X1091590Y7142056D01*
G01X1094506Y7141390D01*
G01X1097453Y7140872D01*
G01X1100422Y7140499D01*
G01X1103406Y7140275D01*
G01X1106396Y7140202D01*
G01X1136396Y7140202D01*
G01X1139386Y7140275D01*
G01X1142370Y7140499D01*
G01X1145339Y7140872D01*
G01X1148286Y7141390D01*
G01X1151202Y7142056D01*
G01X1154082Y7142866D01*
G01X1156917Y7143821D01*
G01X1159703Y7144913D01*
G01X1162428Y7146143D01*
G01X1165090Y7147509D01*
G01X1167681Y7149005D01*
G01X1170196Y7150628D01*
G01X1172624Y7152373D01*
G01X1174963Y7154238D01*
G01X1177206Y7156219D01*
G01X1179347Y7158307D01*
G01X1181382Y7160501D01*
G01X1183305Y7162792D01*
G01X1185113Y7165177D01*
G01X1186797Y7167649D01*
G01X1188357Y7170202D01*
G01X1189789Y7172828D01*
G01X1191087Y7175525D01*
G01X1192248Y7178281D01*
G01X1193272Y7181093D01*
G01X1194153Y7183951D01*
G01X1194892Y7186851D01*
G01X1195484Y7189782D01*
G01X1195931Y7192742D01*
G01X1196228Y7195718D01*
G01X1196378Y7198705D01*
G01X1196378Y7201698D01*
G37*

G04 Pad Start*
G54D10*
G01X2711298Y2095500D03*
G01X2851302Y2095500D03*
G01X2711298Y1816100D03*
G01X2851302Y1816100D03*
G54D11*
G01X2603500Y4921402D03*
G01X2603500Y4781398D03*
G01X2603500Y4426102D03*
G01X2603500Y4286098D03*
G54D10*
G01X2711298Y2400300D03*
G01X2851302Y2400300D03*
G54D12*
G01X3444659Y1816100D03*
G01X3210141Y1816100D03*
G54D13*
G01X3459251Y3962400D03*
G01X3459251Y3835400D03*
G01X3459251Y3708400D03*
G01X3459251Y3581400D03*
G01X3459251Y3454400D03*
G01X3459251Y3327400D03*
G01X3459251Y3200400D03*
G01X3459251Y3073400D03*
G01X4033749Y3962400D03*
G01X4033749Y3835400D03*
G01X4033749Y3708400D03*
G01X4033749Y3581400D03*
G01X4033749Y3454400D03*
G01X4033749Y3327400D03*
G01X4033749Y3200400D03*
G01X4033749Y3073400D03*
G04 Pad End*

M02*

