G04 Layer: TopSolderMaskLayer*
G04 EasyEDA Pro v2.2.44.9, 2025-12-02 00:09:12*
G04 Gerber Generator version 0.3*
G04 Scale: 100 percent, Rotated: No, Reflected: No*
G04 Dimensions in millimeters*
G04 Leading zeros omitted, absolute positions, 4 integers and 5 decimals*
G04 Generated by one-click*
%FSLAX45Y45*%
%MOMM*%
%AMRoundRect*1,1,$1,$2,$3*1,1,$1,$4,$5*1,1,$1,0-$2,0-$3*1,1,$1,0-$4,0-$5*20,1,$1,$2,$3,$4,$5,0*20,1,$1,$4,$5,0-$2,0-$3,0*20,1,$1,0-$2,0-$3,0-$4,0-$5,0*20,1,$1,0-$4,0-$5,$2,$3,0*4,1,4,$2,$3,$4,$5,0-$2,0-$3,0-$4,0-$5,$2,$3,0*%
%ADD10RoundRect,0.09131X-0.40514X0.45514X0.40514X0.45514*%
%ADD11RoundRect,0.09131X-0.45514X-0.40514X-0.45514X0.40514*%
%ADD12RoundRect,0.09077X-0.50541X0.38042X0.50541X0.38042*%
%ADD13RoundRect,0.08771X-0.27695X-0.28977X-0.27695X0.28977*%
%ADD14O,1.84661X0.66159*%
%ADD15C,2.70159*%
%ADD16C,1.6381*%
%ADD17C,1.6256*%
%ADD18RoundRect,0.09562X-0.76499X-0.76499X-0.76499X0.76499*%
%ADD19RoundRect,0.08669X-0.55667X-0.28168X-0.55667X0.28168*%
%ADD20RoundRect,0.08002X-0.56X-0.16X-0.56X0.16*%
%ADD21O,2.10002X1.20002*%
%ADD22O,1.90002X1.30002*%
%ADD23RoundRect,0.09588X-0.80286X1.40286X0.80286X1.40286*%
%ADD24RoundRect,0.09588X-0.80286X0.80286X0.80286X0.80286*%
%ADD25C,1.7016*%
G75*


G04 Pad Start*
G54D10*
G01X2711298Y2095500D03*
G01X2851302Y2095500D03*
G01X2711298Y1816100D03*
G01X2851302Y1816100D03*
G54D11*
G01X2603500Y4921402D03*
G01X2603500Y4781398D03*
G01X2603500Y4426102D03*
G01X2603500Y4286098D03*
G54D10*
G01X2711298Y2400300D03*
G01X2851302Y2400300D03*
G54D12*
G01X3444659Y1816100D03*
G01X3210141Y1816100D03*
G54D13*
G01X2667000Y6278982D03*
G01X2667000Y6192418D03*
G01X2692400Y5936082D03*
G01X2692400Y5849518D03*
G54D14*
G01X3459251Y3962400D03*
G01X3459251Y3835400D03*
G01X3459251Y3708400D03*
G01X3459251Y3581400D03*
G01X3459251Y3454400D03*
G01X3459251Y3327400D03*
G01X3459251Y3200400D03*
G01X3459251Y3073400D03*
G01X4033749Y3962400D03*
G01X4033749Y3835400D03*
G01X4033749Y3708400D03*
G01X4033749Y3581400D03*
G01X4033749Y3454400D03*
G01X4033749Y3327400D03*
G01X4033749Y3200400D03*
G01X4033749Y3073400D03*
G54D15*
G01X1693304Y5056099D03*
G01X1693304Y3656101D03*
G54D17*
G01X1964296Y4006113D03*
G01X1964296Y4256100D03*
G01X1964296Y4456100D03*
G54D18*
G01X1964296Y4706112D03*
G54D15*
G01X1693304Y3227299D03*
G01X1693304Y1827301D03*
G54D17*
G01X1964296Y2177313D03*
G01X1964296Y2427300D03*
G01X1964296Y2627300D03*
G54D18*
G01X1964296Y2877312D03*
G54D13*
G01X2705100Y7828382D03*
G01X2705100Y7741818D03*
G01X2730500Y7472782D03*
G01X2730500Y7386218D03*
G54D19*
G01X1596403Y6441402D03*
G01X1596403Y6361392D03*
G54D20*
G01X1596403Y6296393D03*
G01X1596403Y6246381D03*
G01X1596403Y6196394D03*
G01X1596403Y6146406D03*
G01X1596403Y6096394D03*
G01X1596403Y6046407D03*
G01X1596403Y5996394D03*
G01X1596403Y5946381D03*
G54D19*
G01X1596403Y5881383D03*
G01X1596403Y5801398D03*
G54D21*
G01X1541412Y6553899D03*
G01X1541412Y5688902D03*
G54D22*
G01X1121397Y6553899D03*
G01X1121397Y5688902D03*
G54D19*
G01X1596403Y7952702D03*
G01X1596403Y7872692D03*
G54D20*
G01X1596403Y7807693D03*
G01X1596403Y7757681D03*
G01X1596403Y7707694D03*
G01X1596403Y7657706D03*
G01X1596403Y7607694D03*
G01X1596403Y7557707D03*
G01X1596403Y7507694D03*
G01X1596403Y7457681D03*
G54D19*
G01X1596403Y7392683D03*
G01X1596403Y7312698D03*
G54D21*
G01X1541412Y8065199D03*
G01X1541412Y7200202D03*
G54D22*
G01X1121397Y8065199D03*
G01X1121397Y7200202D03*
G54D23*
G01X2315604Y738200D03*
G01X3475596Y738200D03*
G54D24*
G01X3245599Y938200D03*
G54D25*
G01X2995613Y938200D03*
G01X2795613Y938200D03*
G01X2545601Y938200D03*
G04 Pad End*

M02*

